<?xml version="1.0" encoding="UTF-8" standalone="no"?>
<svg
   width="116"
   height="20"
   role="img"
   aria-label="Made with: Python"
   version="1.1"
   id="svg30"
   sodipodi:docname="Made-For-BrAutomation.svg"
   inkscape:version="1.2 (dc2aedaf03, 2022-05-15)"
   xmlns:inkscape="http://www.inkscape.org/namespaces/inkscape"
   xmlns:sodipodi="http://sodipodi.sourceforge.net/DTD/sodipodi-0.dtd"
   xmlns="http://www.w3.org/2000/svg"
   xmlns:svg="http://www.w3.org/2000/svg"
   xmlns:rdf="http://www.w3.org/1999/02/22-rdf-syntax-ns#"
   xmlns:cc="http://creativecommons.org/ns#"
   xmlns:dc="http://purl.org/dc/elements/1.1/">
  <defs
     id="defs34" />
  <sodipodi:namedview
     id="namedview32"
     pagecolor="#ffffff"
     bordercolor="#666666"
     borderopacity="1.0"
     inkscape:showpageshadow="2"
     inkscape:pageopacity="0.0"
     inkscape:pagecheckerboard="0"
     inkscape:deskcolor="#d1d1d1"
     showgrid="false"
     inkscape:zoom="7.1503125"
     inkscape:cx="79.507014"
     inkscape:cy="37.760587"
     inkscape:window-width="2178"
     inkscape:window-height="839"
     inkscape:window-x="208"
     inkscape:window-y="208"
     inkscape:window-maximized="0"
     inkscape:current-layer="svg30" />
  <title
     id="title2">Made with: Python</title>
  <linearGradient
     id="s"
     x2="0"
     y2="48.166378"
     gradientTransform="matrix(2.4083189,0,0,0.4152274,-0.10883126,0.12771042)"
     x1="0"
     y1="0"
     gradientUnits="userSpaceOnUse">
    <stop
       offset="0"
       stop-color="#bbb"
       stop-opacity=".1"
       id="stop4" />
    <stop
       offset="1"
       stop-opacity=".1"
       id="stop6" />
  </linearGradient>
  <rect
     width="67"
     height="20"
     fill="#555555"
     id="rect12"
     x="0.079013526"
     y="0.010146406" />
  <rect
     x="67.07901"
     width="49"
     height="20"
     fill="#1f425f"
     id="rect14"
     y="0.010146406"
     style="fill:#ffffff;fill-opacity:1" />
  <rect
     width="116"
     height="20"
     fill="url(#s)"
     id="rect16"
     style="fill:url(#s)"
     x="-0.10882974"
     y="0.12771071" />
  <g
     fill="#fff"
     text-anchor="middle"
     font-family="Verdana,Geneva,DejaVu Sans,sans-serif"
     text-rendering="geometricPrecision"
     font-size="110"
     id="g28">
    <text
       aria-hidden="true"
       x="345"
       y="150"
       fill="#010101"
       fill-opacity="0.3"
       transform="scale(0.1)"
       textLength="570"
       id="text20"
       lengthAdjust="spacing">Madefor</text>
    <text
       x="345"
       y="140"
       transform="scale(0.1)"
       fill="#ffffff"
       textLength="570"
       id="text22"
       lengthAdjust="spacing">Made for</text>
    <text
       x="905"
       y="140"
       transform="scale(0.1)"
       fill="#ffffff"
       textLength="390"
       id="text26"
       lengthAdjust="spacing" />
  </g>
  <g
     id="g5179"
     transform="matrix(1.2151606,0,0,1.2126389,-18.318665,-3.4591782)"
     style="stroke-width:0.823792">
    <path
       d="m 81.253242,9.6373814 0.02059,4.5505426 1.956431,0.02342 c 1.132671,0.01561 2.203559,-0.01561 2.539928,-0.06244 1.407257,-0.20294 2.265341,-1.131782 2.265341,-2.458698 0,-0.69468 -0.08924,-1.045922 -0.363827,-1.459608 -0.205937,-0.3044172 -0.54917,-0.6244382 -0.75511,-0.7102975 -0.04805,-0.015611 0.05492,-0.1717185 0.240263,-0.3590479 0.459933,-0.4683234 0.63155,-0.9132306 0.624685,-1.6391319 -0.0069,-1.0303115 -0.336369,-1.6235211 -1.173858,-2.0918445 L 86.08597,5.1336713 83.662741,5.1102552 81.239513,5.086839 Z m 3.926591,-2.981659 c 0.151023,0.039027 0.363828,0.1717186 0.480527,0.3044102 0.171617,0.2029402 0.20594,0.2966048 0.20594,0.6322366 0,0.320021 -0.03432,0.4292964 -0.199075,0.6244312 -0.274587,0.3278264 -0.576632,0.3980749 -1.592603,0.3746587 L 83.195944,8.568043 83.17535,7.6782285 c -0.0069,-0.4917396 0,-0.9444522 0.01373,-0.9990899 0.04119,-0.1248863 1.551416,-0.140497 1.990754,-0.023416 z m 0.487392,3.5748686 c 0.116699,0.07805 0.274587,0.296605 0.363827,0.483934 0.130429,0.2888 0.157888,0.437102 0.130429,0.811761 -0.04119,0.483934 -0.157887,0.741512 -0.487391,1.0147 -0.171617,0.148303 -0.281452,0.163914 -1.331746,0.163914 h -1.1464 l -0.02059,-1.248863 c -0.0069,-0.679069 -0.0069,-1.280084 0.0069,-1.326916 0.02059,-0.04683 0.418745,-0.07025 1.153265,-0.05464 0.906136,0.02342 1.166994,0.05464 1.331746,0.156108 z"
       id="path1366"
       style="fill:#000000;stroke:none;stroke-width:0.109839" />
    <path
       d="m 94.776642,9.6373814 0.02059,4.5505426 0.851219,0.02342 c 0.562903,0.01561 0.878678,-0.0078 0.94046,-0.07025 0.07551,-0.07025 0.0961,-0.421491 0.0961,-1.724991 v -1.631326 l 0.411881,0.02342 0.41188,0.02342 1.180723,1.678159 1.187588,1.678159 1.043427,0.01561 c 0.57663,0.0078 1.06403,-0.01561 1.07775,-0.04683 0.0206,-0.03122 -0.48739,-0.81176 -1.13267,-1.717186 -0.64527,-0.91323 -1.160124,-1.670353 -1.146395,-1.678158 0.0069,-0.01561 0.192211,-0.109276 0.398155,-0.218551 0.66587,-0.343438 1.02283,-0.7961502 1.25623,-1.5766892 0.16475,-0.5541826 0.15102,-1.4596079 -0.0343,-2.0840391 C 101.14707,6.2264389 100.61849,5.6020077 100.0144,5.3288191 99.60937,5.1414767 99.561317,5.1336713 97.179277,5.1102552 L 94.762913,5.086839 Z m 4.372795,-2.5913895 c 0.645279,0.3668533 0.645279,1.561078 0.0069,1.9903745 -0.212805,0.140497 -0.356963,0.1561078 -1.372935,0.1561078 h -1.13267 l -0.02059,-1.1551978 -0.02059,-1.1473923 h 1.139535 c 0.995377,0 1.173859,0.015611 1.400393,0.1561078 z"
       id="path1368"
       style="fill:#000000;stroke:none;stroke-width:0.109839" />
    <path
       d="m 89.250583,7.9592225 c -0.02746,0.023416 -0.04805,0.3278264 -0.04805,0.6712636 v 0.6244312 l 0.30891,0.3746587 c 0.171617,0.2029401 0.30891,0.40588 0.30891,0.444907 0,0.03903 -0.09611,0.117081 -0.20594,0.171719 -0.391286,0.187329 -0.748249,0.546377 -0.961054,0.952257 -0.164752,0.335632 -0.20594,0.507351 -0.20594,0.889815 0,0.265383 0.04805,0.60882 0.10297,0.764928 0.137294,0.374659 0.549174,0.882009 0.864949,1.061533 0.672737,0.39027 1.880919,0.320021 2.553657,-0.156108 l 0.336369,-0.234161 0.288316,0.343437 0.281451,0.351242 0.741385,-0.0078 c 0.405015,0 0.755114,-0.03903 0.775708,-0.07025 0.02059,-0.03903 -0.21967,-0.421491 -0.535445,-0.858592 -0.315775,-0.437102 -0.597226,-0.835177 -0.631549,-0.889815 -0.04119,-0.07025 0.01373,-0.210745 0.19221,-0.452713 0.144158,-0.20294 0.247129,-0.390269 0.233399,-0.429296 -0.05492,-0.156108 -0.645279,-0.944452 -0.707061,-0.944452 -0.03432,0 -0.157887,0.132691 -0.267722,0.30441 -0.116699,0.171719 -0.226534,0.312216 -0.253993,0.312216 -0.06865,0 -1.228776,-1.69377 -1.228776,-1.7952401 0,-0.046832 0.343234,-0.078054 0.892407,-0.078054 h 0.899272 l -0.02059,-0.6868743 -0.02059,-0.6790689 -1.826002,-0.023416 c -1.002242,-0.00781 -1.839732,0.00781 -1.86719,0.039027 z m 1.826002,3.8168355 c 0.212805,0.312216 0.391286,0.608821 0.391286,0.655653 0,0.03903 -0.130429,0.148302 -0.288316,0.241967 -0.405016,0.234162 -0.83749,0.171719 -1.098347,-0.156108 -0.21967,-0.280994 -0.247128,-0.585404 -0.06865,-0.850787 0.137293,-0.20294 0.494256,-0.483934 0.597226,-0.476129 0.04119,0 0.247128,0.265383 0.466798,0.585404 z"
       id="path1370"
       style="fill:#000000;stroke:none;stroke-width:0.109839" />
    <path
       d="m 85.172969,15.61631 -3.796163,0.01561 v 0.975674 0.975673 H 91.708135 102.03946 V 16.607594 15.63192 l -6.535163,-0.01561 c -3.597087,-0.01561 -8.251333,-0.01561 -10.331328,0 z"
       id="path1372"
       style="fill:#ff9703;fill-opacity:1;stroke:none;stroke-width:0.109839" />
  </g>
  <metadata
     id="metadata5907">
    <rdf:RDF>
      <cc:Work
         rdf:about="">
        <dc:title>Made with: Python</dc:title>
      </cc:Work>
    </rdf:RDF>
  </metadata>
</svg>
